<svg width="22" height="22" viewBox="0 0 22 22" fill="none" xmlns="http://www.w3.org/2000/svg">
<path d="M6.33398 15.1668H4.2994C2.48648 15.1668 1.58398 14.2643 1.58398 12.4514V6.79891C1.58398 4.986 2.48648 4.0835 4.2994 4.0835H7.91732C9.73023 4.0835 10.6327 4.986 10.6327 6.79891" stroke="#FF9432" stroke-width="1.5" stroke-linecap="round" stroke-linejoin="round"/>
<path d="M14.7005 19.9168H11.0826C9.26969 19.9168 8.36719 19.0143 8.36719 17.2014V11.5489C8.36719 9.736 9.26969 8.8335 11.0826 8.8335H14.7005C16.5134 8.8335 17.4159 9.736 17.4159 11.5489V17.2014C17.4159 19.0143 16.5134 19.9168 14.7005 19.9168Z" stroke="#FF9432" stroke-width="1.5" stroke-linecap="round" stroke-linejoin="round"/>
<path d="M11.7715 14.375H14.3523" stroke="#FF9432" stroke-width="1.5" stroke-linecap="round" stroke-linejoin="round"/>
<path d="M13.0625 15.6654V13.0846" stroke="#FF9432" stroke-width="1.5" stroke-linecap="round" stroke-linejoin="round"/>
</svg>
