<svg width="1374" height="33" viewBox="0 0 1374 33" fill="none" xmlns="http://www.w3.org/2000/svg">
<path d="M1337.47 31.7725C1336.56 32.564 1335.4 33 1334.19 33L1247.55 33C1246.24 33 1244.98 32.4835 1244.04 31.562L1220.69 8.56203C1217.51 5.42324 1219.73 1.34869e-05 1224.2 1.30959e-05L1360.63 1.16852e-06C1365.26 7.64279e-07 1367.4 5.73768 1363.92 8.77246L1337.47 31.7725Z" fill="white"/>
<path d="M1135.47 31.7725C1134.56 32.5641 1133.4 33 1132.19 33L1045.55 33C1044.24 33 1042.98 32.4835 1042.04 31.562L1018.69 8.56205C1015.51 5.42326 1017.73 3.11299e-05 1022.2 3.07389e-05L1158.63 1.88115e-05C1163.26 1.84073e-05 1165.4 5.73769 1161.92 8.77248L1135.47 31.7725Z" fill="white"/>
<path d="M933.474 31.7725C932.564 32.5641 931.399 33 930.193 33L843.549 33C842.236 33 840.976 32.4835 840.04 31.5621L816.692 8.56207C813.505 5.42328 815.728 4.87728e-05 820.201 4.83818e-05L956.634 3.64545e-05C961.258 3.60502e-05 963.404 5.73771 959.915 8.7725L933.474 31.7725Z" fill="white"/>
<path d="M731.474 31.7725C730.564 32.5641 729.399 33.0001 728.193 33.0001L641.549 33.0001C640.236 33.0001 638.976 32.4835 638.04 31.5621L614.692 8.56208C611.505 5.4233 613.728 6.64158e-05 618.201 6.60248e-05L754.634 5.40974e-05C759.258 5.36932e-05 761.404 5.73773 757.915 8.77251L731.474 31.7725Z" fill="white"/>
<path d="M529.474 31.7725C528.564 32.5641 527.399 33.0001 526.193 33.0001L439.549 33.0001C438.236 33.0001 436.976 32.4836 436.04 31.5621L412.692 8.5621C409.505 5.42331 411.728 8.40588e-05 416.201 8.36678e-05L552.634 7.17404e-05C557.258 7.13362e-05 559.404 5.73775 555.915 8.77253L529.474 31.7725Z" fill="white"/>
<path d="M327.474 31.7725C326.564 32.5641 325.399 33.0001 324.193 33.0001L237.549 33.0001C236.236 33.0001 234.976 32.4836 234.04 31.5621L210.692 8.56212C207.505 5.42333 209.728 0.000101702 214.201 0.000101311L350.634 8.93834e-05C355.258 8.89792e-05 357.404 5.73776 353.915 8.77255L327.474 31.7725Z" fill="white"/>
<path d="M125.474 31.7726C124.564 32.5641 123.399 33.0001 122.193 33.0001L35.5491 33.0001C34.236 33.0001 32.9757 32.4836 32.0402 31.5621L8.69174 8.56214C5.5054 5.42335 7.72792 0.000119345 12.2006 0.000118954L148.634 0.000107026C153.258 0.000106622 155.404 5.73778 151.915 8.77257L125.474 31.7726Z" fill="white"/>
</svg>
