<svg width="1374" height="33" viewBox="0 0 1374 33" fill="none" xmlns="http://www.w3.org/2000/svg">
<path d="M36.5255 1.22754C37.4355 0.435966 38.601 0 39.8071 0H126.451C127.764 0 129.024 0.516517 129.96 1.43798L153.308 24.438C156.495 27.5768 154.272 33 149.799 33H13.3663C8.74234 33 6.59602 27.2623 10.0848 24.2275L36.5255 1.22754Z" fill="white"/>
<path d="M238.526 1.22754C239.436 0.435966 240.601 0 241.807 0H328.451C329.764 0 331.024 0.516517 331.96 1.43798L355.308 24.438C358.495 27.5768 356.272 33 351.799 33H215.366C210.742 33 208.596 27.2623 212.085 24.2275L238.526 1.22754Z" fill="white"/>
<path d="M440.526 1.22754C441.436 0.435966 442.601 0 443.807 0H530.451C531.764 0 533.024 0.516517 533.96 1.43798L557.308 24.438C560.495 27.5768 558.272 33 553.799 33H417.366C412.742 33 410.596 27.2623 414.085 24.2275L440.526 1.22754Z" fill="white"/>
<path d="M642.526 1.22754C643.436 0.435966 644.601 0 645.807 0H732.451C733.764 0 735.024 0.516517 735.96 1.43798L759.308 24.438C762.495 27.5768 760.272 33 755.799 33H619.366C614.742 33 612.596 27.2623 616.085 24.2275L642.526 1.22754Z" fill="white"/>
<path d="M844.526 1.22754C845.436 0.435966 846.601 0 847.807 0H934.451C935.764 0 937.024 0.516517 937.96 1.43798L961.308 24.438C964.495 27.5768 962.272 33 957.799 33H821.366C816.742 33 814.596 27.2623 818.085 24.2275L844.526 1.22754Z" fill="white"/>
<path d="M1046.53 1.22754C1047.44 0.435966 1048.6 0 1049.81 0H1136.45C1137.76 0 1139.02 0.516517 1139.96 1.43798L1163.31 24.438C1166.49 27.5768 1164.27 33 1159.8 33H1023.37C1018.74 33 1016.6 27.2623 1020.08 24.2275L1046.53 1.22754Z" fill="white"/>
<path d="M1248.53 1.22754C1249.44 0.435966 1250.6 0 1251.81 0H1338.45C1339.76 0 1341.02 0.516517 1341.96 1.43798L1365.31 24.438C1368.49 27.5768 1366.27 33 1361.8 33H1225.37C1220.74 33 1218.6 27.2623 1222.08 24.2275L1248.53 1.22754Z" fill="white"/>
</svg>
