<svg width="14" height="15" viewBox="0 0 14 15" fill="none" xmlns="http://www.w3.org/2000/svg">
<circle opacity="0.2" cx="7" cy="7.5" r="7" fill="#FF9432"/>
<path d="M6.71039 8.53069L6.53683 5.1965V3.04541H7.46245V5.1965L7.2889 8.53069H6.71039ZM7.45088 10.5097C7.32747 10.6244 7.17706 10.6818 6.99964 10.6818C6.82223 10.6818 6.67182 10.6244 6.54841 10.5097C6.42499 10.395 6.36328 10.2551 6.36328 10.0902C6.36328 9.92531 6.42499 9.78549 6.54841 9.67076C6.67182 9.55604 6.82223 9.49868 6.99964 9.49868C7.17706 9.49868 7.32747 9.55604 7.45088 9.67076C7.5743 9.78549 7.63601 9.92531 7.63601 10.0902C7.63601 10.2551 7.5743 10.395 7.45088 10.5097Z" fill="#FF9432"/>
</svg>
