<svg width="128" height="38" viewBox="0 0 128 38" fill="none" xmlns="http://www.w3.org/2000/svg">
<path d="M10.6377 5.9916C12.4769 5.9916 13.9505 6.60364 15.0584 7.82773C16.1885 9.03035 16.7536 10.7269 16.7536 12.9174V22.549H11.236V13.5938C11.236 12.7778 11.0144 12.155 10.5712 11.7255C10.1281 11.2745 9.51868 11.049 8.74312 11.049C7.87892 11.049 7.20308 11.3067 6.71558 11.8221C6.25024 12.3161 6.01757 13.0355 6.01757 13.9804V22.549H0.5V6.44258H6.01757V8.05322C7.01473 6.67881 8.55477 5.9916 10.6377 5.9916Z" fill="white"/>
<path d="M31.4491 7.92437V6.44258H36.9667V22.549H31.4491V21.0672C30.319 22.3557 28.7457 23 26.7292 23C24.4912 23 22.6298 22.1947 21.1452 20.584C19.6605 18.9519 18.9182 16.9225 18.9182 14.4958C18.9182 12.0476 19.6605 10.0289 21.1452 8.43978C22.6298 6.80766 24.4912 5.9916 26.7292 5.9916C28.7457 5.9916 30.319 6.63586 31.4491 7.92437ZM25.4329 17.0406C26.0534 17.6849 26.8954 18.007 27.9591 18.007C29.0227 18.007 29.8647 17.6849 30.4852 17.0406C31.1278 16.3749 31.4491 15.5266 31.4491 14.4958C31.4491 13.465 31.1278 12.6167 30.4852 11.951C29.8647 11.3067 29.0227 10.9846 27.9591 10.9846C26.8954 10.9846 26.0534 11.3067 25.4329 11.951C24.7903 12.6167 24.469 13.465 24.469 14.4958C24.469 15.5266 24.7903 16.3749 25.4329 17.0406Z" fill="white"/>
<path d="M47.7769 15.6877L50.8681 6.44258H56.984L50.7684 22.549H44.7855L38.5699 6.44258H44.6858L47.7769 15.6877Z" fill="white"/>
<path d="M65.8677 23C63.3859 23 61.2919 22.1839 59.5857 20.5518C57.8573 18.9197 56.9931 16.901 56.9931 14.4958C56.9931 12.1335 57.8573 10.1256 59.5857 8.47199C61.3362 6.8184 63.4302 5.9916 65.8677 5.9916C68.3495 5.9916 70.4435 6.8184 72.1498 8.47199C73.8782 10.1256 74.7424 12.1335 74.7424 14.4958C74.7424 16.901 73.8782 18.9197 72.1498 20.5518C70.4657 22.1839 68.3717 23 65.8677 23ZM65.8677 17.8459C66.8427 17.8459 67.6404 17.5345 68.2609 16.9118C68.9035 16.289 69.2248 15.4837 69.2248 14.4958C69.2248 13.5079 68.9035 12.7026 68.2609 12.0798C67.6404 11.4571 66.8427 11.1457 65.8677 11.1457C64.9149 11.1457 64.1172 11.4678 63.4745 12.112C62.8541 12.7348 62.5439 13.5294 62.5439 14.4958C62.5439 15.4622 62.8541 16.2675 63.4745 16.9118C64.1172 17.5345 64.9149 17.8459 65.8677 17.8459Z" fill="white"/>
<path d="M87.4064 5.9916C89.6223 5.9916 91.4726 6.80766 92.9573 8.43978C94.4641 10.0719 95.2175 12.0906 95.2175 14.4958C95.2175 16.901 94.4641 18.9304 92.9573 20.584C91.4504 22.1947 89.6002 23 87.4064 23C85.39 23 83.8167 22.3557 82.6866 21.0672V22.549H77.169V0H82.6866V7.92437C83.8167 6.63586 85.39 5.9916 87.4064 5.9916ZM83.6505 17.0406C84.2931 17.6849 85.1352 18.007 86.1766 18.007C87.2181 18.007 88.0601 17.6849 88.7027 17.0406C89.3454 16.3749 89.6667 15.5266 89.6667 14.4958C89.6667 13.465 89.3454 12.6167 88.7027 11.951C88.0601 11.3067 87.2181 10.9846 86.1766 10.9846C85.1352 10.9846 84.2931 11.3067 83.6505 11.951C83.0079 12.6167 82.6866 13.465 82.6866 14.4958C82.6866 15.5266 83.0079 16.3749 83.6505 17.0406Z" fill="white"/>
<path d="M105.695 23C103.214 23 101.12 22.1839 99.4133 20.5518C97.6849 18.9197 96.8207 16.901 96.8207 14.4958C96.8207 12.1335 97.6849 10.1256 99.4133 8.47199C101.164 6.8184 103.258 5.9916 105.695 5.9916C108.177 5.9916 110.271 6.8184 111.977 8.47199C113.706 10.1256 114.57 12.1335 114.57 14.4958C114.57 16.901 113.706 18.9197 111.977 20.5518C110.293 22.1839 108.199 23 105.695 23ZM105.695 17.8459C106.67 17.8459 107.468 17.5345 108.089 16.9118C108.731 16.289 109.052 15.4837 109.052 14.4958C109.052 13.5079 108.731 12.7026 108.089 12.0798C107.468 11.4571 106.67 11.1457 105.695 11.1457C104.743 11.1457 103.945 11.4678 103.302 12.112C102.682 12.7348 102.372 13.5294 102.372 14.4958C102.372 15.4622 102.682 16.2675 103.302 16.9118C103.945 17.5345 104.743 17.8459 105.695 17.8459Z" fill="white"/>
<path d="M122.514 6.44258V9.43838C122.824 8.40756 123.434 7.60224 124.342 7.02241C125.273 6.4211 126.326 6.12045 127.5 6.12045V12.0476C126.237 11.8543 125.085 12.0798 124.043 12.7241C123.024 13.3683 122.514 14.4206 122.514 15.881V22.549H116.997V6.44258H122.514Z" fill="white"/>
<path d="M10.7745 33.0861V31.1361H11.8239V36.0355H10.7745V34.0856H8.54939V36.0355H7.5V31.1361H8.54939V33.0861H10.7745Z" fill="white"/>
<path d="M16.8893 31.8319V31.1361H17.9387V36.0355H16.8893V35.33C16.4941 35.8853 15.9273 36.1629 15.1889 36.1629C14.5217 36.1629 13.9516 35.9147 13.4787 35.4182C13.0059 34.9217 12.7694 34.3109 12.7694 33.5858C12.7694 32.8607 13.0059 32.2499 13.4787 31.7535C13.9516 31.257 14.5217 31.0088 15.1889 31.0088C15.9273 31.0088 16.4941 31.2831 16.8893 31.8319ZM14.2561 34.7127C14.5476 35.0067 14.9136 35.1536 15.3541 35.1536C15.7945 35.1536 16.1605 35.0067 16.452 34.7127C16.7435 34.4122 16.8893 34.0366 16.8893 33.5858C16.8893 33.1351 16.7435 32.7627 16.452 32.4688C16.1605 32.1683 15.7945 32.018 15.3541 32.018C14.9136 32.018 14.5476 32.1683 14.2561 32.4688C13.9646 32.7627 13.8188 33.1351 13.8188 33.5858C13.8188 34.03 13.9646 34.4057 14.2561 34.7127Z" fill="white"/>
<path d="M22.5238 33.5172C23.0031 33.7459 23.2428 34.1215 23.2428 34.6441C23.2428 35.0622 23.1003 35.3986 22.8153 35.6534C22.5367 35.9081 22.1481 36.0355 21.6493 36.0355H19.1618V31.1361H21.4549C21.9473 31.1361 22.3327 31.2603 22.6112 31.5085C22.8898 31.7567 23.029 32.0834 23.029 32.4884C23.029 32.9522 22.8606 33.2951 22.5238 33.5172ZM21.3772 32.0376H20.1626V33.1253H21.3772C21.8047 33.1253 22.0185 32.9424 22.0185 32.5766C22.0185 32.2173 21.8047 32.0376 21.3772 32.0376ZM20.1626 35.1144H21.5521C21.9926 35.1144 22.2128 34.9217 22.2128 34.5363C22.2128 34.3665 22.1545 34.2358 22.0379 34.1444C21.9213 34.0464 21.7594 33.9974 21.5521 33.9974H20.1626V35.1144Z" fill="white"/>
<path d="M28.7892 34.0366H24.9219C24.9997 34.4024 25.1746 34.6866 25.4466 34.8891C25.7252 35.0916 26.0685 35.1928 26.4766 35.1928C27.0272 35.1928 27.445 34.9903 27.73 34.5853L28.5948 35.0948C28.122 35.8069 27.4126 36.1629 26.4669 36.1629C25.6831 36.1629 25.045 35.9212 24.5527 35.4378C24.0669 34.9479 23.824 34.3305 23.824 33.5858C23.824 32.8607 24.0636 32.2499 24.543 31.7535C25.0159 31.257 25.6313 31.0088 26.3892 31.0088C27.0952 31.0088 27.6782 31.2603 28.1381 31.7633C28.5981 32.2663 28.828 32.8771 28.828 33.5956C28.828 33.7263 28.8151 33.8733 28.7892 34.0366ZM24.9122 33.1743H27.7689C27.6977 32.7889 27.5357 32.4916 27.2831 32.2826C27.0369 32.0736 26.7357 31.969 26.3794 31.969C25.9908 31.969 25.6669 32.0768 25.4078 32.2924C25.1487 32.508 24.9835 32.8019 24.9122 33.1743Z" fill="white"/>
<path d="M32.0161 36.1629C31.2841 36.1629 30.6719 35.9147 30.1796 35.4182C29.6938 34.9152 29.4509 34.3044 29.4509 33.5858C29.4509 32.8542 29.6938 32.2434 30.1796 31.7535C30.6719 31.257 31.2841 31.0088 32.0161 31.0088C32.4889 31.0088 32.9197 31.1231 33.3084 31.3517C33.697 31.5803 33.9885 31.8874 34.1829 32.2728L33.2792 32.8019C33.1691 32.5668 33.0007 32.3838 32.774 32.2532C32.5537 32.116 32.2978 32.0474 32.0063 32.0474C31.5788 32.0474 31.2193 32.1944 30.9278 32.4884C30.6428 32.7889 30.5003 33.1547 30.5003 33.5858C30.5003 34.017 30.6428 34.3828 30.9278 34.6833C31.2193 34.9773 31.5788 35.1242 32.0063 35.1242C32.2914 35.1242 32.5472 35.0589 32.774 34.9283C33.0071 34.7911 33.182 34.6049 33.2986 34.3697L34.2023 34.8891C33.995 35.281 33.6938 35.5913 33.2986 35.82C32.91 36.0486 32.4825 36.1629 32.0161 36.1629Z" fill="white"/>
<path d="M38.2638 33.0861V31.1361H39.3131V36.0355H38.2638V34.0856H36.0387V36.0355H34.9893V31.1361H36.0387V33.0861H38.2638Z" fill="white"/>
<path d="M44.6409 35.4182C44.1486 35.9147 43.5429 36.1629 42.8239 36.1629C42.1049 36.1629 41.4992 35.9147 41.0069 35.4182C40.5081 34.9152 40.2587 34.3044 40.2587 33.5858C40.2587 32.8673 40.5081 32.2565 41.0069 31.7535C41.4992 31.257 42.1049 31.0088 42.8239 31.0088C43.5429 31.0088 44.1486 31.257 44.6409 31.7535C45.1397 32.2565 45.3891 32.8673 45.3891 33.5858C45.3891 34.3044 45.1397 34.9152 44.6409 35.4182ZM41.3081 33.5858C41.3081 34.03 41.4538 34.3991 41.7453 34.6931C42.0368 34.9871 42.3964 35.134 42.8239 35.134C43.2514 35.134 43.6109 34.9871 43.9024 34.6931C44.1939 34.3991 44.3397 34.03 44.3397 33.5858C44.3397 33.1416 44.1939 32.7725 43.9024 32.4786C43.6109 32.1846 43.2514 32.0376 42.8239 32.0376C42.3964 32.0376 42.0368 32.1846 41.7453 32.4786C41.4538 32.7725 41.3081 33.1416 41.3081 33.5858Z" fill="white"/>
<path d="M51.0311 34.0366H47.1639C47.2416 34.4024 47.4165 34.6866 47.6886 34.8891C47.9671 35.0916 48.3104 35.1928 48.7185 35.1928C49.2691 35.1928 49.6869 34.9903 49.972 34.5853L50.8367 35.0948C50.3639 35.8069 49.6546 36.1629 48.7088 36.1629C47.925 36.1629 47.2869 35.9212 46.7946 35.4378C46.3088 34.9479 46.0659 34.3305 46.0659 33.5858C46.0659 32.8607 46.3056 32.2499 46.7849 31.7535C47.2578 31.257 47.8732 31.0088 48.6311 31.0088C49.3371 31.0088 49.9201 31.2603 50.3801 31.7633C50.84 32.2663 51.0699 32.8771 51.0699 33.5956C51.0699 33.7263 51.057 33.8733 51.0311 34.0366ZM47.1541 33.1743H50.0108C49.9396 32.7889 49.7776 32.4916 49.525 32.2826C49.2788 32.0736 48.9776 31.969 48.6214 31.969C48.2327 31.969 47.9088 32.0768 47.6497 32.2924C47.3906 32.508 47.2254 32.8019 47.1541 33.1743Z" fill="white"/>
<path d="M58.5326 35.4182C58.0403 35.9147 57.4346 36.1629 56.7156 36.1629C55.9966 36.1629 55.3909 35.9147 54.8986 35.4182C54.3998 34.9152 54.1504 34.3044 54.1504 33.5858C54.1504 32.8673 54.3998 32.2565 54.8986 31.7535C55.3909 31.257 55.9966 31.0088 56.7156 31.0088C57.4346 31.0088 58.0403 31.257 58.5326 31.7535C59.0314 32.2565 59.2808 32.8673 59.2808 33.5858C59.2808 34.3044 59.0314 34.9152 58.5326 35.4182ZM55.1998 33.5858C55.1998 34.03 55.3455 34.3991 55.637 34.6931C55.9285 34.9871 56.2881 35.134 56.7156 35.134C57.1431 35.134 57.5026 34.9871 57.7941 34.6931C58.0856 34.3991 58.2314 34.03 58.2314 33.5858C58.2314 33.1416 58.0856 32.7725 57.7941 32.4786C57.5026 32.1846 57.1431 32.0376 56.7156 32.0376C56.2881 32.0376 55.9285 32.1846 55.637 32.4786C55.3455 32.7725 55.1998 33.1416 55.1998 33.5858Z" fill="white"/>
<path d="M62.4839 36.1629C61.7454 36.1629 61.1365 35.9212 60.6572 35.4378C60.1908 34.9479 59.9576 34.324 59.9576 33.5662C59.9576 32.7431 60.0807 32.103 60.3268 31.6457C60.5665 31.1949 61.0653 30.7801 61.8232 30.4012C61.8491 30.3882 61.8912 30.3686 61.9495 30.3424C62.0143 30.3098 62.0823 30.2771 62.1535 30.2444C62.2248 30.2118 62.2961 30.1791 62.3673 30.1465C62.6394 30.0223 62.8078 29.944 62.8726 29.9113C62.9114 29.8917 63.0248 29.8198 63.2127 29.6957C63.4394 29.5324 63.5916 29.3005 63.6693 29L64.5244 29.4997C64.492 29.859 64.2685 30.1889 63.854 30.4894C63.7827 30.5547 63.6499 30.6331 63.4556 30.7246L63.0378 30.9206L62.5519 31.1263C62.1309 31.2962 61.8199 31.4693 61.6191 31.6457C61.4183 31.8221 61.2791 32.0474 61.2013 32.3218C61.59 31.8776 62.1179 31.6555 62.7851 31.6555C63.3552 31.6555 63.8507 31.8612 64.2718 32.2728C64.6993 32.6843 64.9131 33.2167 64.9131 33.87C64.9131 34.5363 64.6863 35.085 64.2329 35.5162C63.7859 35.9473 63.2029 36.1629 62.4839 36.1629ZM62.4742 35.1732C62.8823 35.1732 63.2159 35.0524 63.475 34.8107C63.7341 34.5624 63.8637 34.2489 63.8637 33.87C63.8637 33.4846 63.7341 33.1678 63.475 32.9195C63.2224 32.6713 62.892 32.5472 62.4839 32.5472C62.1212 32.5472 61.794 32.6647 61.5025 32.8999C61.211 33.122 61.0653 33.4291 61.0653 33.821C61.0653 34.213 61.2013 34.5363 61.4734 34.7911C61.7454 35.0459 62.0791 35.1732 62.4742 35.1732Z" fill="white"/>
<path d="M69.8528 35.4182C69.3605 35.9147 68.7548 36.1629 68.0358 36.1629C67.3168 36.1629 66.7111 35.9147 66.2188 35.4182C65.72 34.9152 65.4706 34.3044 65.4706 33.5858C65.4706 32.8673 65.72 32.2565 66.2188 31.7535C66.7111 31.257 67.3168 31.0088 68.0358 31.0088C68.7548 31.0088 69.3605 31.257 69.8528 31.7535C70.3516 32.2565 70.601 32.8673 70.601 33.5858C70.601 34.3044 70.3516 34.9152 69.8528 35.4182ZM66.52 33.5858C66.52 34.03 66.6658 34.3991 66.9573 34.6931C67.2488 34.9871 67.6083 35.134 68.0358 35.134C68.4633 35.134 68.8229 34.9871 69.1144 34.6931C69.4059 34.3991 69.5516 34.03 69.5516 33.5858C69.5516 33.1416 69.4059 32.7725 69.1144 32.4786C68.8229 32.1846 68.4633 32.0376 68.0358 32.0376C67.6083 32.0376 67.2488 32.1846 66.9573 32.4786C66.6658 32.7725 66.52 33.1416 66.52 33.5858Z" fill="white"/>
<path d="M74.2997 31.0088C74.9604 31.0088 75.5305 31.2603 76.0098 31.7633C76.4827 32.2597 76.7191 32.8673 76.7191 33.5858C76.7191 34.3109 76.4827 34.9217 76.0098 35.4182C75.5369 35.9147 74.9669 36.1629 74.2997 36.1629C73.5677 36.1629 73.0009 35.8885 72.5993 35.3398V37.9953H71.5499V31.1361H72.5993V31.8416C72.9944 31.2864 73.5612 31.0088 74.2997 31.0088ZM73.0365 34.7127C73.328 35.0067 73.694 35.1536 74.1345 35.1536C74.575 35.1536 74.941 35.0067 75.2325 34.7127C75.524 34.4122 75.6697 34.0366 75.6697 33.5858C75.6697 33.1351 75.524 32.7627 75.2325 32.4688C74.941 32.1683 74.575 32.018 74.1345 32.018C73.694 32.018 73.328 32.1683 73.0365 32.4688C72.745 32.7627 72.5993 33.1351 72.5993 33.5858C72.5993 34.03 72.745 34.4057 73.0365 34.7127Z" fill="white"/>
<path d="M79.5112 34.7029L80.7549 31.1361H81.8723L80.0067 36.1923C79.78 36.8129 79.4626 37.2767 79.0545 37.5837C78.6464 37.8908 78.1735 38.028 77.6359 37.9953V37.0056C78.2578 37.0448 78.6885 36.7312 78.9282 36.0649L78.9574 35.9963L76.9169 31.1361H78.0343L79.5112 34.7029Z" fill="white"/>
<path d="M86.5097 31.1361V35.0361H87.1607V37.3486H86.1307V36.0355H82.7979V37.3486H81.768V35.0361H82.3607C82.6586 34.618 82.8076 34.0268 82.8076 33.2625V31.1361H86.5097ZM83.5169 35.0361H85.4797V32.1062H83.8376V33.2625C83.8376 33.968 83.7307 34.5592 83.5169 35.0361Z" fill="white"/>
<path d="M91.9334 35.4182C91.4411 35.9147 90.8354 36.1629 90.1164 36.1629C89.3974 36.1629 88.7917 35.9147 88.2994 35.4182C87.8006 34.9152 87.5512 34.3044 87.5512 33.5858C87.5512 32.8673 87.8006 32.2565 88.2994 31.7535C88.7917 31.257 89.3974 31.0088 90.1164 31.0088C90.8354 31.0088 91.4411 31.257 91.9334 31.7535C92.4322 32.2565 92.6816 32.8673 92.6816 33.5858C92.6816 34.3044 92.4322 34.9152 91.9334 35.4182ZM88.6006 33.5858C88.6006 34.03 88.7464 34.3991 89.0379 34.6931C89.3294 34.9871 89.6889 35.134 90.1164 35.134C90.5439 35.134 90.9035 34.9871 91.195 34.6931C91.4865 34.3991 91.6322 34.03 91.6322 33.5858C91.6322 33.1416 91.4865 32.7725 91.195 32.4786C90.9035 32.1846 90.5439 32.0376 90.1164 32.0376C89.6889 32.0376 89.3294 32.1846 89.0379 32.4786C88.7464 32.7725 88.6006 33.1416 88.6006 33.5858Z" fill="white"/>
<path d="M96.9924 33.5172C97.4718 33.7459 97.7115 34.1215 97.7115 34.6441C97.7115 35.0622 97.5689 35.3986 97.2839 35.6534C97.0054 35.9081 96.6167 36.0355 96.1179 36.0355H93.6305V31.1361H95.9236C96.4159 31.1361 96.8013 31.2603 97.0799 31.5085C97.3584 31.7567 97.4977 32.0834 97.4977 32.4884C97.4977 32.9522 97.3293 33.2951 96.9924 33.5172ZM95.8459 32.0376H94.6313V33.1253H95.8459C96.2734 33.1253 96.4872 32.9424 96.4872 32.5766C96.4872 32.2173 96.2734 32.0376 95.8459 32.0376ZM94.6313 35.1144H96.0208C96.4613 35.1144 96.6815 34.9217 96.6815 34.5363C96.6815 34.3665 96.6232 34.2358 96.5066 34.1444C96.39 34.0464 96.2281 33.9974 96.0208 33.9974H94.6313V35.1144Z" fill="white"/>
<path d="M102.412 31.8319V31.1361H103.462V36.0355H102.412V35.33C102.017 35.8853 101.451 36.1629 100.712 36.1629C100.045 36.1629 99.4748 35.9147 99.0019 35.4182C98.5291 34.9217 98.2926 34.3109 98.2926 33.5858C98.2926 32.8607 98.5291 32.2499 99.0019 31.7535C99.4748 31.257 100.045 31.0088 100.712 31.0088C101.451 31.0088 102.017 31.2831 102.412 31.8319ZM99.7793 34.7127C100.071 35.0067 100.437 35.1536 100.877 35.1536C101.318 35.1536 101.684 35.0067 101.975 34.7127C102.267 34.4122 102.412 34.0366 102.412 33.5858C102.412 33.1351 102.267 32.7627 101.975 32.4688C101.684 32.1683 101.318 32.018 100.877 32.018C100.437 32.018 100.071 32.1683 99.7793 32.4688C99.4878 32.7627 99.342 33.1351 99.342 33.5858C99.342 34.03 99.4878 34.4057 99.7793 34.7127Z" fill="white"/>
<path d="M107.96 33.0861V31.1361H109.009V36.0355H107.96V34.0856H105.734V36.0355H104.685V31.1361H105.734V33.0861H107.96Z" fill="white"/>
<path d="M111.256 34.2424L113.744 31.1361H114.55V36.0355H113.52V32.9195L111.033 36.0355H110.227V31.1361H111.256V34.2424Z" fill="white"/>
<path d="M120.461 34.0366H116.594C116.672 34.4024 116.847 34.6866 117.119 34.8891C117.397 35.0916 117.74 35.1928 118.149 35.1928C118.699 35.1928 119.117 34.9903 119.402 34.5853L120.267 35.0948C119.794 35.8069 119.085 36.1629 118.139 36.1629C117.355 36.1629 116.717 35.9212 116.225 35.4378C115.739 34.9479 115.496 34.3305 115.496 33.5858C115.496 32.8607 115.736 32.2499 116.215 31.7535C116.688 31.257 117.303 31.0088 118.061 31.0088C118.767 31.0088 119.35 31.2603 119.81 31.7633C120.27 32.2663 120.5 32.8771 120.5 33.5956C120.5 33.7263 120.487 33.8733 120.461 34.0366ZM116.584 33.1743H119.441C119.37 32.7889 119.208 32.4916 118.955 32.2826C118.709 32.0736 118.408 31.969 118.051 31.969C117.663 31.969 117.339 32.0768 117.08 32.2924C116.821 32.508 116.655 32.8019 116.584 33.1743Z" fill="white"/>
</svg>
